<!-- Generator: Adobe Illustrator 21.0.0, SVG Export Plug-In  -->
<svg version="1.1"
	 xmlns="http://www.w3.org/2000/svg" xmlns:xlink="http://www.w3.org/1999/xlink" xmlns:a="http://ns.adobe.com/AdobeSVGViewerExtensions/3.0/"
	 x="0px" y="0px" width="67.724px" height="69.019px" viewBox="0 0 67.724 69.019"
	 style="enable-background:new 0 0 67.724 69.019;" xml:space="preserve">
<style type="text/css">
	.st0{fill:#FFFFFF;}
</style>
<defs>
</defs>
<g>
	<path class="st0" d="M60.724,40.862c-1.792,0-3.583-0.683-4.95-2.05L33.862,16.899L11.95,38.812c-2.733,2.733-7.166,2.733-9.899,0
		c-2.734-2.733-2.734-7.166,0-9.899L28.913,2.05C30.225,0.738,32.006,0,33.862,0l0,0c1.856,0,3.637,0.737,4.95,2.05l26.862,26.862
		c2.734,2.734,2.734,7.166,0,9.899C64.307,40.179,62.515,40.862,60.724,40.862z"/>
</g>
<g>
	<path class="st0" d="M33.862,69.019c-3.866,0-7-3.134-7-7V7c0-3.866,3.134-7,7-7s7,3.134,7,7v55.019
		C40.862,65.885,37.729,69.019,33.862,69.019z"/>
</g>
</svg>